<?xml version="1.0" encoding="iso-8859-1"?>
<!-- Uploaded to: SVG Repo, www.svgrepo.com, Generator: SVG Repo Mixer Tools -->
<svg height="800px" width="800px" version="1.1" id="Layer_1" xmlns="http://www.w3.org/2000/svg" xmlns:xlink="http://www.w3.org/1999/xlink" 
	 viewBox="0 0 512.001 512.001" xml:space="preserve">
<path style="fill:#CCE8FF;" d="M95.848,463.367L56.986,502.23c-13.028,13.028-34.184,13.028-47.214,0
	c-13.028-13.14-13.028-34.186,0-47.214l38.862-38.862L95.848,463.367z"/>
<path style="fill:#B0DBFF;" d="M56.987,502.23l38.862-38.862L72.242,439.76L9.773,502.23
	C22.801,515.257,43.957,515.257,56.987,502.23z"/>
<polygon style="fill:#57D4D4;" points="221.789,327.627 221.789,337.426 95.848,463.367 48.635,416.153 174.575,290.212 
	184.375,290.212 "/>
<polygon style="fill:#4DBFBF;" points="95.848,463.367 221.789,337.426 221.789,327.627 203.082,308.919 72.241,439.76 "/>
<path style="fill:#CCE8FF;" d="M456.643,55.358c-73.81-73.811-193.901-73.811-267.711,0c-73.81,73.81-73.81,193.901,0,267.712
	c73.81,73.81,193.901,73.81,267.711,0C530.453,249.259,530.453,129.168,456.643,55.358z M433.022,299.448
	c-60.784,60.785-159.683,60.785-220.467,0c-60.785-60.785-60.785-159.685,0-220.469c60.784-60.784,159.683-60.784,220.467,0
	C493.806,139.763,493.806,238.664,433.022,299.448z"/>
<path style="fill:#B0DBFF;" d="M456.643,55.358l-23.621,23.62c60.785,60.785,60.785,159.685,0,220.469
	c-60.784,60.785-159.683,60.785-220.467,0l-23.621,23.621c73.81,73.81,193.901,73.81,267.711,0
	C530.453,249.259,530.453,129.168,456.643,55.358z"/>
<path style="fill:#FF80AC;" d="M404.632,107.368c-8.796-4.12-18.485-6.347-28.841-6.347c-25.389,0-42.314,13.141-53.004,26.836
	c-10.69-13.697-27.616-26.836-53.004-26.836c-39.197,0-69.819,32.404-69.819,73.717c0,34.074,21.157,57.459,52.893,84.406
	c7.127,6.124,14.923,12.36,23.051,18.93c11.024,8.908,23.049,18.707,35.967,29.843c3.118,2.672,7.015,4.009,10.913,4.009
	c3.897,0,7.795-1.336,10.913-4.009c12.917-11.135,24.943-20.934,35.967-29.843c44.096-35.745,75.944-61.579,75.944-103.336
	C445.611,144.338,429.02,118.727,404.632,107.368z"/>
<path style="fill:#F26D99;" d="M445.611,174.738c0,41.758-31.848,67.591-75.944,103.336c-11.024,8.908-23.049,18.707-35.967,29.843
	c-3.118,2.672-7.015,4.009-10.913,4.009s-7.795-1.336-10.913-4.009c-12.917-11.135-24.943-20.934-35.967-29.843
	c-8.129-6.57-15.925-12.806-23.051-18.93l151.775-151.775C429.02,118.727,445.611,144.338,445.611,174.738z"/>
</svg>